General
Unique ID                                : 159820107410007777833411994786484132392 (0x783C3BA9A9E4E936BFCE732368B71A28)
Complete name                            : Official HIGE DANdism - Ai Nandaga [WEB-DL 1080p AAC x264-SEKAI].mkv
Format                                   : Matroska
Format version                           : Version 4
File size                                : 226 MiB
Duration                                 : 4 min 39 s
Overall bit rate                         : 6 785 kb/s
Frame rate                               : 29.970 FPS
Title                                    : Official HIGE DANdism - Ai Nandaga [WEB-DL 1080p AAC x264-SEKAI]
Encoded date                             : 2025-09-27 16:08:47 UTC
Writing application                      : mkvmerge 95.0 ('Goodbye Stranger') 64-bit
Writing library                          : libebml v1.4.5 + libmatroska v1.7.1
Website                                  : https://sekai-archivist.blogspot.com/

Video
ID                                       : 1
Format                                   : AVC
Format/Info                              : Advanced Video Codec
Format profile                           : High@L4
Format settings                          : CABAC / 5 Ref Frames
Format settings, CABAC                   : Yes
Format settings, Reference frames        : 5 frames
Format settings, Slice count             : 8 slices per frame
Codec ID                                 : V_MPEG4/ISO/AVC
Duration                                 : 4 min 39 s
Bit rate                                 : 6 545 kb/s
Width                                    : 1 920 pixels
Height                                   : 822 pixels
Display aspect ratio                     : 2.35:1
Frame rate mode                          : Constant
Frame rate                               : 29.970 (30000/1001) FPS
Color space                              : YUV
Chroma subsampling                       : 4:2:0 (Type 2)
Bit depth                                : 8 bits
Scan type                                : Progressive
Bits/(Pixel*Frame)                       : 0.138
Stream size                              : 218 MiB (96%)
Default                                  : Yes
Forced                                   : No
Color range                              : Limited
Color primaries                          : BT.709
Transfer characteristics                 : BT.709
Matrix coefficients                      : BT.709

Audio
ID                                       : 2
Format                                   : AAC LC
Format/Info                              : Advanced Audio Codec Low Complexity
Codec ID                                 : A_AAC-2
Duration                                 : 4 min 39 s
Bit rate                                 : 238 kb/s
Channel(s)                               : 2 channels
Channel layout                           : L R
Sampling rate                            : 48.0 kHz
Frame rate                               : 46.875 FPS (1024 SPF)
Compression mode                         : Lossy
Stream size                              : 7.92 MiB (4%)
Default                                  : Yes
Forced                                   : No


